<svg width="36" height="36" viewBox="0 0 36 36" fill="none" xmlns="http://www.w3.org/2000/svg">
<g clip-path="url(#clip0_3649_33538)">
<circle cx="18" cy="18" r="18" fill="#3555F9"/>
<path fill-rule="evenodd" clip-rule="evenodd" d="M19.0515 7.53357C18.0898 7.48537 17.117 7.46519 16.1665 7.64232C15.8626 7.69359 15.5628 7.7649 15.2636 7.83607C15.216 7.84738 15.1685 7.85867 15.121 7.86989C11.3807 8.8396 8.29447 11.9517 7.43346 15.6781C7.10652 17.0033 7.04571 18.3805 7.25455 19.7295C7.27692 19.8876 7.29369 20.067 7.17293 20.1937C6.61048 20.9246 6.10841 21.7071 5.74164 22.5524C5.57056 22.9616 5.95745 23.4212 6.38348 23.4212C6.63754 23.4037 6.86339 23.2527 6.97724 23.0243L6.99903 22.9829C7.22992 22.5438 7.461 22.1042 7.73202 21.6858C7.80816 21.8511 7.87994 22.0187 7.95175 22.1864C8.12148 22.5827 8.29137 22.9793 8.51923 23.3472C10.0019 25.9324 12.6096 27.8808 15.5571 28.5209C17.59 29.0029 19.7548 28.8471 21.7206 28.1577C23.4271 27.5441 24.9551 26.5156 26.1676 25.1644C28.271 22.8528 29.2583 19.5872 28.7395 16.5188C28.7378 16.5 28.7354 16.4807 28.7329 16.4612C28.7208 16.3647 28.7081 16.2635 28.7797 16.187C29.246 15.5503 29.6966 14.8978 30.0455 14.1915C30.0692 14.1417 30.0955 14.092 30.1219 14.0419C30.2194 13.8576 30.3191 13.6688 30.2971 13.4572C30.2545 13.1102 29.947 12.8583 29.5994 12.8855C29.3478 12.8743 29.132 13.0413 29.0291 13.2577C28.7898 13.7173 28.5438 14.1747 28.2687 14.6142L28.2517 14.5732C27.961 13.8725 27.6688 13.168 27.2377 12.538C26.0551 10.6693 24.3287 9.2097 22.292 8.35643C21.2722 7.8968 20.1607 7.66362 19.0515 7.53357ZM9.11966 14.752C9.94712 12.6882 11.5428 10.9404 13.5253 9.89562C15.5705 8.82501 18.0227 8.49878 20.2714 9.07164C23.6472 9.84965 26.484 12.603 27.2556 15.9482C25.2406 18.3035 22.3165 19.7329 19.3142 20.4279C19.2278 20.446 19.1415 20.4643 19.0551 20.4826C18.5571 20.5883 18.0593 20.6939 17.5542 20.7474C17.3423 20.7677 17.1308 20.7922 16.9192 20.8167C16.3113 20.8872 15.7036 20.9576 15.0897 20.9268C15.4218 20.5909 15.7612 20.262 16.1007 19.933C16.5328 19.5143 16.9649 19.0955 17.382 18.6623C17.1681 18.4031 16.9246 18.1711 16.6813 17.9392C16.6078 17.8692 16.5343 17.7992 16.4617 17.7284C15.9676 18.1954 15.4847 18.6741 15.0019 19.1527C14.6664 19.4853 14.3309 19.8179 13.9916 20.1466C13.7716 20.3728 13.5392 20.5868 13.3069 20.8009C13.0302 21.0557 12.7536 21.3106 12.4977 21.586C12.6225 21.7471 12.7609 21.8971 12.9114 22.0344C13.3689 22.4817 13.8247 22.9306 14.2805 23.3794C14.9077 23.9969 15.5346 24.6143 16.1654 25.2272C16.2561 25.3143 16.3447 25.403 16.4332 25.4915C16.6284 25.6869 16.8229 25.8817 17.0376 26.0568C17.1202 25.9757 17.2041 25.8957 17.288 25.8157C17.5199 25.5945 17.7521 25.373 17.959 25.1285C17.4571 24.6538 16.9652 24.1696 16.4732 23.6853C16.2472 23.4628 16.0212 23.2403 15.7941 23.0187C15.7362 22.9606 15.6775 22.9034 15.6188 22.8462C15.4293 22.6615 15.2401 22.477 15.0796 22.2665C17.4893 22.1981 19.8957 21.7631 22.1544 20.9223C23.8925 20.3014 25.5013 19.3642 26.9 18.1578C26.9568 18.1065 27.0128 18.0545 27.0689 18.0024C27.2161 17.8659 27.3633 17.7293 27.5228 17.6051C27.7029 20.3618 26.5332 23.17 24.4478 25.0131C22.9903 26.3264 21.167 27.1616 19.2225 27.4065C17.8315 27.6005 16.4047 27.4413 15.0673 27.0287C12.7806 26.3023 10.7902 24.6936 9.6385 22.6118C9.28962 21.9548 8.97094 21.2755 8.80209 20.549C8.77973 20.4436 8.76743 20.3192 8.85241 20.2351C10.2803 18.6096 12.1533 17.3944 14.1839 16.632C14.2621 16.6057 14.3403 16.5793 14.4185 16.5529C15.3102 16.2517 16.2054 15.9493 17.1337 15.7834C18.3839 15.5345 19.6541 15.3529 20.9311 15.335C20.5296 15.7906 20.0858 16.2067 19.6419 16.6228C19.2984 16.9449 18.9549 17.267 18.631 17.6074C18.8008 17.8581 19.0239 18.0648 19.2464 18.2709C19.3433 18.3607 19.44 18.4503 19.5323 18.5434C19.6435 18.4587 19.7503 18.3681 19.8521 18.2721C20.4559 17.6685 21.0675 17.0723 21.6792 16.4762C22.2908 15.8801 22.9025 15.284 23.5063 14.6803C22.8253 13.98 22.1249 13.2975 21.4243 12.6149C20.9595 12.1621 20.4947 11.7092 20.0354 11.251C19.8866 11.1097 19.7413 10.9649 19.5959 10.8201C19.3941 10.619 19.1923 10.418 18.981 10.2263L18.981 10.2263C18.6612 10.5268 18.3414 10.8272 18.0462 11.1523C18.5141 11.6389 19.0019 12.1066 19.4898 12.5744C19.9776 13.0421 20.4654 13.5099 20.9333 13.9964C18.1647 14.131 15.3782 14.6276 12.8477 15.7812C11.4857 16.3955 10.1831 17.1668 9.07046 18.1623C8.88123 18.3448 8.68108 18.5155 8.4711 18.6735C8.3973 17.3394 8.64107 15.9986 9.11966 14.752Z" fill="white"/>
</g>
<defs>
<clipPath id="clip0_3649_33538">
<rect width="36" height="36" fill="white"/>
</clipPath>
</defs>
</svg>
